<svg width="138" height="138" viewBox="0 0 138 138" fill="none" xmlns="http://www.w3.org/2000/svg">
<circle cx="69" cy="69" r="69" fill="#3F60A4"/>
<path d="M62.9998 17.0001C62.9998 13.6864 65.686 11.0001 68.9998 11.0001V11.0001C72.3135 11.0001 74.9998 13.6864 74.9998 17.0001V121C74.9998 124.314 72.3135 127 68.9998 127V127C65.686 127 62.9998 124.314 62.9998 121V17.0001Z" fill="white"/>
<path d="M17 75C13.6863 75 11 72.3137 11 69V69C11 65.6863 13.6863 63 17 63L121 63C124.314 63 127 65.6863 127 69V69C127 72.3137 124.314 75 121 75L17 75Z" fill="white"/>
</svg>
